# xmcd CD database file
#
# Track frame offsets:
#	150
#	14780
#	31727
#	46177
#	63992
#	84960
#	99429
#	118660
#	137060
#	155475
#	172759
#
# Disc length: 2542 seconds
#
# Revision: 1
# Processed by: cddbd v1.5.2PL0 Copyright (c) Steve Scherf et al.
# Submitted via: CDex 1.51
#
DISCID=8009ec0b
DTITLE=Lisa Guyer Band - Leap Of Faith
DYEAR=2000
DGENRE=Christian Rock
TTITLE0=It's Alright
TTITLE1=Sensual Shadows
TTITLE2=Leap of Faith
TTITLE3=You
TTITLE4=Long Time
TTITLE5=Contemporary Madness
TTITLE6=Nobody's Somebody
TTITLE7=Soul Mate
TTITLE8=Damn Your Eyes
TTITLE9=Lost in a Minute
TTITLE10=Son of a Preacherman
EXTD=YEAR: 2000
EXTT0=
EXTT1=
EXTT2=
EXTT3=
EXTT4=
EXTT5=
EXTT6=
EXTT7=
EXTT8=
EXTT9=
EXTT10=
PLAYORDER=
